<mxfile host="Electron" agent="Mozilla/5.0 (Windows NT 10.0; Win64; x64) AppleWebKit/537.36 (KHTML, like Gecko) draw.io/25.0.2 Chrome/128.0.6613.186 Electron/32.2.5 Safari/537.36" version="25.0.2">
  <diagram name="第 1 页" id="2tibv39SI-iQMo4GeGhA">
    <mxGraphModel dx="1834" dy="854" grid="1" gridSize="10" guides="1" tooltips="1" connect="1" arrows="1" fold="1" page="0" pageScale="1" pageWidth="827" pageHeight="1169" math="0" shadow="0">
      <root>
        <mxCell id="0" />
        <mxCell id="1" parent="0" />
        <mxCell id="dxhuILQCUcfVavFZVL47-47" value="" style="rounded=1;whiteSpace=wrap;html=1;fillColor=none;" vertex="1" parent="1">
          <mxGeometry x="-80" y="1150" width="890" height="370" as="geometry" />
        </mxCell>
        <mxCell id="dxhuILQCUcfVavFZVL47-6" value="" style="rounded=1;whiteSpace=wrap;html=1;fillColor=#d5e8d4;strokeColor=#82b366;" vertex="1" parent="1">
          <mxGeometry x="-70" y="260" width="790" height="120" as="geometry" />
        </mxCell>
        <mxCell id="dxhuILQCUcfVavFZVL47-5" style="edgeStyle=orthogonalEdgeStyle;rounded=0;orthogonalLoop=1;jettySize=auto;html=1;" edge="1" parent="1" source="dxhuILQCUcfVavFZVL47-1">
          <mxGeometry relative="1" as="geometry">
            <mxPoint x="55" y="260" as="targetPoint" />
          </mxGeometry>
        </mxCell>
        <mxCell id="dxhuILQCUcfVavFZVL47-1" value="IDEA Remote Debugger Config" style="rounded=1;whiteSpace=wrap;html=1;" vertex="1" parent="1">
          <mxGeometry x="-50" y="110" width="210" height="40" as="geometry" />
        </mxCell>
        <mxCell id="dxhuILQCUcfVavFZVL47-2" value="JVM (JDK11)" style="rounded=1;whiteSpace=wrap;html=1;" vertex="1" parent="1">
          <mxGeometry x="-50" y="290" width="290" height="40" as="geometry" />
        </mxCell>
        <mxCell id="dxhuILQCUcfVavFZVL47-3" value="Java Server: JobManager / TaskManager" style="text;html=1;align=center;verticalAlign=middle;whiteSpace=wrap;rounded=0;fontSize=11;fontStyle=1" vertex="1" parent="1">
          <mxGeometry x="-50" y="260" width="220" height="30" as="geometry" />
        </mxCell>
        <mxCell id="dxhuILQCUcfVavFZVL47-4" value="env.java.opts.jobmanager: -Duser.timezone=GMT+08 -agentlib:jdwp=transport=dt_socket,server=y,suspend=y,address=*:5005&lt;br&gt;&lt;div style=&quot;text-align: left;&quot;&gt;&lt;span style=&quot;text-align: center;&quot;&gt;suspend=y 或者 n&lt;/span&gt;&lt;/div&gt;" style="text;html=1;align=center;verticalAlign=middle;whiteSpace=wrap;rounded=0;fontSize=11;fillColor=#dae8fc;strokeColor=#6c8ebf;" vertex="1" parent="1">
          <mxGeometry x="60" y="330" width="620" height="40" as="geometry" />
        </mxCell>
        <mxCell id="dxhuILQCUcfVavFZVL47-7" value="Flink Standalone" style="text;html=1;align=center;verticalAlign=middle;whiteSpace=wrap;rounded=0;fontStyle=1" vertex="1" parent="1">
          <mxGeometry x="-70" y="230" width="100" height="30" as="geometry" />
        </mxCell>
        <mxCell id="dxhuILQCUcfVavFZVL47-8" value="机器 IP" style="text;html=1;align=center;verticalAlign=middle;whiteSpace=wrap;rounded=0;fontStyle=1" vertex="1" parent="1">
          <mxGeometry x="60" y="190" width="50" height="20" as="geometry" />
        </mxCell>
        <mxCell id="dxhuILQCUcfVavFZVL47-9" value="" style="rounded=1;whiteSpace=wrap;html=1;fillColor=#d5e8d4;strokeColor=#82b366;" vertex="1" parent="1">
          <mxGeometry x="-60" y="690" width="350" height="130" as="geometry" />
        </mxCell>
        <mxCell id="dxhuILQCUcfVavFZVL47-11" value="Flink WEB UI" style="rounded=1;whiteSpace=wrap;html=1;" vertex="1" parent="1">
          <mxGeometry x="-30" y="520" width="120" height="40" as="geometry" />
        </mxCell>
        <mxCell id="dxhuILQCUcfVavFZVL47-12" value="JVM (JDK11)" style="rounded=1;whiteSpace=wrap;html=1;" vertex="1" parent="1">
          <mxGeometry x="-40" y="720" width="290" height="40" as="geometry" />
        </mxCell>
        <mxCell id="dxhuILQCUcfVavFZVL47-13" value="Pod&amp;nbsp; Java Server: JobManager&amp;nbsp;" style="text;html=1;align=center;verticalAlign=middle;whiteSpace=wrap;rounded=0;fontSize=11;fontStyle=1" vertex="1" parent="1">
          <mxGeometry x="-40" y="690" width="220" height="30" as="geometry" />
        </mxCell>
        <mxCell id="dxhuILQCUcfVavFZVL47-14" value="env.java.opts.jobmanager: -Duser.timezone=GMT+08 -agentlib:jdwp=transport=dt_socket,server=y,suspend=y,address=*:5005&lt;br&gt;&lt;div style=&quot;&quot;&gt;&lt;span style=&quot;&quot;&gt;suspend=y 或者 n&lt;/span&gt;&lt;/div&gt;" style="text;html=1;align=left;verticalAlign=middle;whiteSpace=wrap;rounded=0;fontSize=11;fillColor=#dae8fc;strokeColor=#6c8ebf;" vertex="1" parent="1">
          <mxGeometry x="-20" y="760" width="360" height="70" as="geometry" />
        </mxCell>
        <mxCell id="dxhuILQCUcfVavFZVL47-15" value="Kubernetes" style="text;html=1;align=center;verticalAlign=middle;whiteSpace=wrap;rounded=0;fontStyle=1" vertex="1" parent="1">
          <mxGeometry x="-60" y="660" width="80" height="30" as="geometry" />
        </mxCell>
        <mxCell id="dxhuILQCUcfVavFZVL47-21" value="" style="rounded=1;whiteSpace=wrap;html=1;fillColor=#d5e8d4;strokeColor=#82b366;" vertex="1" parent="1">
          <mxGeometry x="390" y="690" width="350" height="130" as="geometry" />
        </mxCell>
        <mxCell id="dxhuILQCUcfVavFZVL47-22" value="JVM (JDK11)" style="rounded=1;whiteSpace=wrap;html=1;" vertex="1" parent="1">
          <mxGeometry x="410" y="720" width="290" height="40" as="geometry" />
        </mxCell>
        <mxCell id="dxhuILQCUcfVavFZVL47-23" value="Pod&amp;nbsp; Java Server: TaskManager" style="text;html=1;align=center;verticalAlign=middle;whiteSpace=wrap;rounded=0;fontSize=11;fontStyle=1" vertex="1" parent="1">
          <mxGeometry x="410" y="690" width="220" height="30" as="geometry" />
        </mxCell>
        <mxCell id="dxhuILQCUcfVavFZVL47-24" value="env.java.opts.jobmanager: -Duser.timezone=GMT+08 -agentlib:jdwp=transport=dt_socket,server=y,suspend=y,address=*:5005&lt;br&gt;&lt;div style=&quot;&quot;&gt;&lt;span style=&quot;&quot;&gt;suspend=y 或者 n&lt;/span&gt;&lt;/div&gt;" style="text;html=1;align=left;verticalAlign=middle;whiteSpace=wrap;rounded=0;fontSize=11;fillColor=#dae8fc;strokeColor=#6c8ebf;" vertex="1" parent="1">
          <mxGeometry x="430" y="760" width="360" height="70" as="geometry" />
        </mxCell>
        <mxCell id="dxhuILQCUcfVavFZVL47-26" value="" style="curved=1;endArrow=classic;html=1;rounded=0;exitX=0.5;exitY=1;exitDx=0;exitDy=0;entryX=0.5;entryY=0;entryDx=0;entryDy=0;dashed=1;" edge="1" parent="1" source="dxhuILQCUcfVavFZVL47-11" target="dxhuILQCUcfVavFZVL47-13">
          <mxGeometry width="50" height="50" relative="1" as="geometry">
            <mxPoint x="210" y="640" as="sourcePoint" />
            <mxPoint x="260" y="590" as="targetPoint" />
            <Array as="points">
              <mxPoint x="70" y="600" />
            </Array>
          </mxGeometry>
        </mxCell>
        <mxCell id="dxhuILQCUcfVavFZVL47-28" value="" style="sketch=0;outlineConnect=0;fillColor=#a20025;strokeColor=#6F0000;dashed=0;verticalLabelPosition=bottom;verticalAlign=top;align=center;html=1;fontSize=12;fontStyle=0;aspect=fixed;pointerEvents=1;shape=mxgraph.aws4.question;fontColor=#ffffff;" vertex="1" parent="1">
          <mxGeometry x="49.5" y="582" width="41" height="78" as="geometry" />
        </mxCell>
        <mxCell id="dxhuILQCUcfVavFZVL47-29" value="" style="rounded=1;whiteSpace=wrap;html=1;fillColor=#d5e8d4;strokeColor=#82b366;" vertex="1" parent="1">
          <mxGeometry x="-60" y="1310" width="350" height="130" as="geometry" />
        </mxCell>
        <mxCell id="dxhuILQCUcfVavFZVL47-30" value="Flink WEB UI" style="rounded=1;whiteSpace=wrap;html=1;" vertex="1" parent="1">
          <mxGeometry x="30" y="1000" width="120" height="40" as="geometry" />
        </mxCell>
        <mxCell id="dxhuILQCUcfVavFZVL47-31" value="JVM (JDK11)" style="rounded=1;whiteSpace=wrap;html=1;" vertex="1" parent="1">
          <mxGeometry x="-40" y="1340" width="290" height="40" as="geometry" />
        </mxCell>
        <mxCell id="dxhuILQCUcfVavFZVL47-32" value="Pod&amp;nbsp; Java Server: JobManager&amp;nbsp;" style="text;html=1;align=center;verticalAlign=middle;whiteSpace=wrap;rounded=0;fontSize=11;fontStyle=1" vertex="1" parent="1">
          <mxGeometry x="-40" y="1310" width="220" height="30" as="geometry" />
        </mxCell>
        <mxCell id="dxhuILQCUcfVavFZVL47-33" value="env.java.opts.jobmanager: -Duser.timezone=GMT+08 -agentlib:jdwp=transport=dt_socket,server=y,suspend=y,address=*:5005&lt;br&gt;&lt;div style=&quot;&quot;&gt;&lt;span style=&quot;&quot;&gt;suspend=y 或者 n&lt;/span&gt;&lt;/div&gt;" style="text;html=1;align=left;verticalAlign=middle;whiteSpace=wrap;rounded=0;fontSize=11;fillColor=#dae8fc;strokeColor=#6c8ebf;" vertex="1" parent="1">
          <mxGeometry x="-40" y="1460" width="360" height="70" as="geometry" />
        </mxCell>
        <mxCell id="dxhuILQCUcfVavFZVL47-34" value="Kubernetes" style="text;html=1;align=center;verticalAlign=middle;whiteSpace=wrap;rounded=0;fontStyle=1" vertex="1" parent="1">
          <mxGeometry x="-70" y="1120" width="80" height="30" as="geometry" />
        </mxCell>
        <mxCell id="dxhuILQCUcfVavFZVL47-35" value="" style="rounded=1;whiteSpace=wrap;html=1;fillColor=#d5e8d4;strokeColor=#82b366;" vertex="1" parent="1">
          <mxGeometry x="390" y="1310" width="350" height="130" as="geometry" />
        </mxCell>
        <mxCell id="dxhuILQCUcfVavFZVL47-36" value="JVM (JDK11)" style="rounded=1;whiteSpace=wrap;html=1;" vertex="1" parent="1">
          <mxGeometry x="410" y="1340" width="290" height="40" as="geometry" />
        </mxCell>
        <mxCell id="dxhuILQCUcfVavFZVL47-37" value="Pod&amp;nbsp; Java Server: TaskManager" style="text;html=1;align=center;verticalAlign=middle;whiteSpace=wrap;rounded=0;fontSize=11;fontStyle=1" vertex="1" parent="1">
          <mxGeometry x="410" y="1310" width="220" height="30" as="geometry" />
        </mxCell>
        <mxCell id="dxhuILQCUcfVavFZVL47-38" value="env.java.opts.jobmanager: -Duser.timezone=GMT+08 -agentlib:jdwp=transport=dt_socket,server=y,suspend=y,address=*:5005&lt;br&gt;&lt;div style=&quot;&quot;&gt;&lt;span style=&quot;&quot;&gt;suspend=y 或者 n&lt;/span&gt;&lt;/div&gt;" style="text;html=1;align=left;verticalAlign=middle;whiteSpace=wrap;rounded=0;fontSize=11;fillColor=#dae8fc;strokeColor=#6c8ebf;" vertex="1" parent="1">
          <mxGeometry x="430" y="1380" width="360" height="70" as="geometry" />
        </mxCell>
        <mxCell id="dxhuILQCUcfVavFZVL47-39" value="" style="curved=1;endArrow=classic;html=1;rounded=0;exitX=0.5;exitY=1;exitDx=0;exitDy=0;entryX=0.5;entryY=0;entryDx=0;entryDy=0;dashed=1;" edge="1" parent="1" source="dxhuILQCUcfVavFZVL47-30" target="dxhuILQCUcfVavFZVL47-41">
          <mxGeometry width="50" height="50" relative="1" as="geometry">
            <mxPoint x="210" y="1200" as="sourcePoint" />
            <mxPoint x="260" y="1150" as="targetPoint" />
            <Array as="points">
              <mxPoint x="140" y="1130" />
            </Array>
          </mxGeometry>
        </mxCell>
        <mxCell id="dxhuILQCUcfVavFZVL47-42" style="edgeStyle=orthogonalEdgeStyle;rounded=0;orthogonalLoop=1;jettySize=auto;html=1;dashed=1;" edge="1" parent="1" source="dxhuILQCUcfVavFZVL47-41">
          <mxGeometry relative="1" as="geometry">
            <mxPoint x="150" y="1300" as="targetPoint" />
          </mxGeometry>
        </mxCell>
        <mxCell id="dxhuILQCUcfVavFZVL47-41" value="rest-service" style="rounded=1;whiteSpace=wrap;html=1;fillColor=#ffe6cc;strokeColor=#d79b00;" vertex="1" parent="1">
          <mxGeometry x="70" y="1170" width="160" height="30" as="geometry" />
        </mxCell>
        <mxCell id="dxhuILQCUcfVavFZVL47-45" value="&lt;div style=&quot;font-family: Consolas, &amp;quot;Courier New&amp;quot;, monospace; line-height: 19px; white-space: pre;&quot;&gt;&lt;div&gt;&lt;font style=&quot;font-size: 14px;&quot;&gt;labels&lt;/font&gt;&lt;/div&gt;&lt;div&gt;&amp;nbsp; &amp;nbsp; &lt;span style=&quot;&quot;&gt;app&lt;/span&gt;: &lt;span style=&quot;&quot;&gt;flink-application-test&lt;/span&gt;&lt;/div&gt;&lt;div&gt;&amp;nbsp; &amp;nbsp; &lt;span style=&quot;&quot;&gt;component&lt;/span&gt;: &lt;span style=&quot;&quot;&gt;jobmanager&lt;/span&gt;&lt;/div&gt;&lt;div&gt;&amp;nbsp; &amp;nbsp; &lt;span style=&quot;&quot;&gt;type&lt;/span&gt;: &lt;span style=&quot;&quot;&gt;flink-native-kubernetes&lt;/span&gt;&lt;/div&gt;&lt;/div&gt;" style="text;html=1;align=left;verticalAlign=middle;whiteSpace=wrap;rounded=0;fontSize=11;labelBackgroundColor=none;fillColor=#f8cecc;strokeColor=#b85450;" vertex="1" parent="1">
          <mxGeometry x="-40" y="1380" width="270" height="80" as="geometry" />
        </mxCell>
        <mxCell id="dxhuILQCUcfVavFZVL47-46" value="&lt;div style=&quot;font-family: Consolas, &amp;quot;Courier New&amp;quot;, monospace; line-height: 19px; white-space: pre;&quot;&gt;&lt;div&gt;&lt;div style=&quot;font-size: 14px; line-height: 19px;&quot;&gt;&lt;span style=&quot;&quot;&gt;selector&lt;/span&gt;&lt;/div&gt;&lt;/div&gt;&lt;div&gt;&amp;nbsp; &amp;nbsp; &lt;span style=&quot;&quot;&gt;app&lt;/span&gt;: &lt;span style=&quot;&quot;&gt;flink-application-test&lt;/span&gt;&lt;/div&gt;&lt;div&gt;&amp;nbsp; &amp;nbsp; &lt;span style=&quot;&quot;&gt;component&lt;/span&gt;: &lt;span style=&quot;&quot;&gt;jobmanager&lt;/span&gt;&lt;/div&gt;&lt;div&gt;&amp;nbsp; &amp;nbsp; &lt;span style=&quot;&quot;&gt;type&lt;/span&gt;: &lt;span style=&quot;&quot;&gt;flink-native-kubernetes&lt;/span&gt;&lt;/div&gt;&lt;/div&gt;" style="text;html=1;align=left;verticalAlign=middle;whiteSpace=wrap;rounded=0;fontSize=11;labelBackgroundColor=none;fillColor=#f8cecc;strokeColor=#b85450;" vertex="1" parent="1">
          <mxGeometry x="230" y="1150" width="260" height="80" as="geometry" />
        </mxCell>
      </root>
    </mxGraphModel>
  </diagram>
</mxfile>
